<svg width="512" height="512" viewBox="0 0 512 512" fill="none" xmlns="http://www.w3.org/2000/svg">
<g clip-path="url(#clip0)">
<path d="M512 256C512 302.791 499.451 346.655 477.518 384.397C433.204 460.695 350.595 512 256 512C161.405 512 78.796 460.695 34.482 384.397C12.549 346.655 0 302.791 0 256C0 114.615 114.615 0 256 0C397.385 0 512 114.615 512 256Z" fill="#FDD142"/>
<path d="M477.518 260.462V384.397C433.204 460.695 350.595 512 256 512C161.405 512 78.796 460.695 34.482 384.397V260.462H477.518Z" fill="#535454"/>
<path d="M460.662 318.976H51.331C42.023 318.976 34.478 311.431 34.478 302.123V239.698C34.478 230.39 42.023 222.845 51.331 222.845H460.662C469.97 222.845 477.515 230.39 477.515 239.698V302.123C477.515 311.431 469.97 318.976 460.662 318.976Z" fill="#666666"/>
<path d="M367.804 256.282H144.185V285.539H367.804V256.282Z" fill="#535454"/>
<path d="M442.504 141.019L297.984 285.539H199.67L170.423 256.282L125.921 211.78C118.847 204.716 118.847 193.244 125.921 186.18L306.792 5.308C313.866 -1.766 325.328 -1.766 332.402 5.308L442.503 115.409C449.578 122.483 449.578 133.945 442.504 141.019Z" fill="#EAEAEA"/>
<path d="M280.738 125.695L252.662 97.619C250.621 95.578 250.621 92.271 252.662 90.231L280.738 62.155C282.779 60.114 286.086 60.114 288.126 62.155L316.202 90.231C318.243 92.272 318.243 95.579 316.202 97.619L288.126 125.695C286.086 127.736 282.778 127.736 280.738 125.695ZM263.744 93.925L284.432 114.613L305.12 93.925L284.432 73.237L263.744 93.925Z" fill="#313B57"/>
<path d="M376.049 176.677L321.374 122.002C319.333 119.961 319.333 116.654 321.374 114.614C323.415 112.573 326.722 112.573 328.762 114.614L383.437 169.289C385.478 171.33 385.478 174.637 383.437 176.677C381.398 178.716 378.09 178.717 376.049 176.677Z" fill="#313B57"/>
<path d="M342.062 175.198L305.12 138.256C303.079 136.215 303.079 132.908 305.12 130.868C307.161 128.827 310.468 128.827 312.508 130.868L349.45 167.81C351.491 169.851 351.491 173.158 349.45 175.198C347.411 177.239 344.103 177.239 342.062 175.198Z" fill="#313B57"/>
<path d="M235.297 171.134L207.221 143.058C205.18 141.017 205.18 137.71 207.221 135.67L235.297 107.594C237.338 105.553 240.645 105.553 242.685 107.594L270.761 135.67C272.802 137.711 272.802 141.018 270.761 143.058L242.685 171.134C240.646 173.175 237.338 173.175 235.297 171.134ZM218.304 139.364L238.992 160.052L259.68 139.364L238.992 118.676L218.304 139.364Z" fill="#313B57"/>
<path d="M330.61 222.116L275.935 167.441C273.894 165.4 273.894 162.093 275.935 160.053C277.976 158.012 281.283 158.012 283.323 160.053L337.998 214.728C340.039 216.769 340.039 220.076 337.998 222.116C335.959 224.156 332.651 224.157 330.61 222.116Z" fill="#313B57"/>
<path d="M296.622 220.639L259.68 183.697C257.639 181.656 257.639 178.349 259.68 176.309C261.721 174.268 265.028 174.268 267.068 176.309L304.01 213.251C306.051 215.292 306.051 218.599 304.01 220.639C301.971 222.678 298.663 222.678 296.622 220.639Z" fill="#313B57"/>
<path d="M189.858 216.574L161.782 188.498C159.741 186.457 159.741 183.15 161.782 181.11L189.858 153.034C191.899 150.993 195.206 150.993 197.246 153.034L225.322 181.11C227.363 183.151 227.363 186.458 225.322 188.498L197.246 216.574C195.207 218.615 191.899 218.615 189.858 216.574ZM172.865 184.804L193.553 205.492L214.241 184.804L193.553 164.116L172.865 184.804Z" fill="#313B57"/>
<path d="M285.17 267.556L230.495 212.881C228.454 210.84 228.454 207.533 230.495 205.493C232.536 203.452 235.843 203.452 237.883 205.493L292.558 260.168C294.599 262.209 294.599 265.516 292.558 267.556C290.519 269.596 287.211 269.596 285.17 267.556Z" fill="#313B57"/>
<path d="M251.183 266.078L214.241 229.136C212.2 227.095 212.2 223.788 214.241 221.748C216.282 219.707 219.589 219.707 221.629 221.748L258.571 258.69C260.612 260.731 260.612 264.038 258.571 266.078C256.532 268.118 253.224 268.118 251.183 266.078Z" fill="#313B57"/>
<path d="M227.909 150.448C226.963 149.502 226.378 148.196 226.379 146.754V118.678C226.379 115.792 228.717 113.454 231.603 113.454C234.487 113.453 236.829 115.794 236.826 118.677V141.529H279.258C282.142 141.528 284.484 143.869 284.481 146.752C284.481 149.638 282.143 151.978 279.257 151.977H231.601C230.161 151.978 228.855 151.393 227.909 150.448Z" fill="#F64C4C"/>
<path d="M89.861 168.751C136.028 168.751 173.453 131.326 173.453 85.159C173.453 38.9924 136.028 1.56699 89.861 1.56699C43.6944 1.56699 6.26901 38.9924 6.26901 85.159C6.26901 131.326 43.6944 168.751 89.861 168.751Z" fill="#50B4A3"/>
<path d="M66.416 130.893L45.368 105.636C41.673 101.202 42.273 94.614 46.705 90.92L46.706 90.919C51.14 87.225 57.728 87.824 61.421 92.258L73.889 107.219L119.149 45.096C122.547 40.432 129.083 39.405 133.747 42.803C138.411 46.201 139.438 52.737 136.04 57.4L82.888 130.357C78.881 135.857 70.772 136.12 66.416 130.893Z" fill="white"/>
<path d="M196.857 477.831C197.119 478.293 196.857 478.962 196.871 479.515C197.723 496.137 211.915 509.645 230.93 511.917C241.825 513.198 270.897 499.298 274.373 490.439C286.079 460.552 297.716 430.607 308.652 400.523C313.296 387.731 315.343 373.128 321.141 362.066C326.183 352.457 317.72 335.224 338.232 331.625C339.166 331.452 340.389 328.291 339.881 326.953C332.956 309.004 335.677 288.645 320.619 272.704C316.799 268.655 310.259 265.252 308.83 271.239C305.849 283.72 290.736 289.695 287.219 298.173C278.179 319.94 258.106 327.76 237.017 334.658C209.676 343.586 199.001 358.421 206.846 382.61C209.126 389.611 211.462 396.578 213.55 402.934C212.534 406.533 212.685 409.832 210.844 411.862C192.914 431.945 182.239 452.939 196.857 477.831Z" fill="#5DACA7"/>
<path d="M42.7595 380.088C46.2155 380.088 49.6715 379.32 52.4235 377.4C56.8395 374.264 57.8635 369.4 57.8635 366.776C57.8635 361.656 56.0715 357.688 48.5195 351.736L46.7275 350.328C40.5835 345.528 38.9195 343.224 38.9195 339.576C38.9195 334.904 42.3755 332.152 46.7915 332.152C52.6795 332.152 54.4075 334.84 54.7915 335.544C55.1755 336.248 55.5595 337.976 55.6235 338.744C55.6875 339.256 55.7515 339.576 56.1355 339.576C56.4555 339.576 56.5835 339.128 56.5835 338.104C56.5835 333.752 56.8395 331.64 56.8395 331.32C56.8395 331 56.7115 330.872 56.1995 330.872C55.6875 330.872 55.1755 330.808 53.9595 330.552C52.3595 330.168 50.5035 329.912 48.0075 329.912C39.8795 329.912 34.7595 334.584 34.7595 341.432C34.7595 345.784 36.2955 349.752 43.0795 355.32L45.9595 357.688C51.4635 362.232 53.3195 364.792 53.3195 369.208C53.3195 373.304 50.3115 377.72 44.1675 377.72C39.8795 377.72 35.6555 375.928 34.6955 371.192C34.5035 370.296 34.5035 369.4 34.5035 368.824C34.5035 368.312 34.4395 368.12 34.0555 368.12C33.7355 368.12 33.6075 368.44 33.5435 369.144C33.4795 370.168 33.2235 372.728 33.2235 375.928C33.2235 377.656 33.2875 377.912 34.1835 378.36C36.8075 379.64 39.7515 380.088 42.7595 380.088ZM91.9315 363.576C92.1875 363.576 92.3155 363.704 92.4435 363.896L97.4995 376.76C97.8835 377.72 97.4995 378.04 97.2435 378.168C96.9875 378.232 96.7955 378.424 96.7955 378.616C96.7955 378.936 97.1795 379 98.3955 379.064C102.683 379.192 107.483 379.192 108.123 379.192C108.827 379.192 109.083 379.064 109.083 378.744C109.083 378.424 108.764 378.296 108.315 378.296C107.868 378.296 106.972 378.296 106.139 377.976C105.243 377.656 103.387 376.824 101.275 371.768C97.8835 363.768 89.1795 341.432 88.2835 339.32C87.5795 337.528 87.3235 337.272 87.0035 337.272C86.5555 337.272 86.3635 337.592 85.6595 339.448L72.8595 373.176C71.7715 375.864 70.6835 377.976 67.9315 378.232C67.5475 378.296 66.9715 378.296 66.6515 378.296C66.1395 378.296 65.8835 378.488 65.8835 378.744C65.8835 379.064 66.2035 379.192 66.9075 379.192C69.5955 379.192 72.4115 379 73.0515 379C73.7555 379 76.6995 379.192 78.1075 379.192C78.5555 379.192 79.0675 379.064 79.0675 378.744C79.0675 378.488 78.8755 378.296 78.2995 378.296C78.1075 378.296 78.0435 378.296 77.8515 378.296C76.4435 378.296 75.7395 377.784 75.7395 376.632C75.7395 375.608 76.1875 373.88 76.8275 372.088L79.6435 364.088C79.7715 363.768 79.9635 363.576 80.2835 363.576H91.9315ZM80.9235 361.336C80.7955 361.336 80.6675 361.208 80.7955 360.952L85.5955 346.808C85.9155 345.912 85.9795 345.912 86.2995 346.808L91.3555 360.952C91.4195 361.144 91.4195 361.336 91.1635 361.336H80.9235ZM126.697 355.192C126.505 355.192 126.313 355.192 126.313 354.872V353.72C126.313 345.272 126.313 343.864 126.377 342.136C126.505 340.344 126.889 339.256 128.489 339C129.193 338.872 129.385 338.872 129.769 338.872C130.153 338.872 130.409 338.744 130.409 338.488C130.409 338.168 130.089 338.04 129.449 338.04C127.657 338.04 123.945 338.232 123.689 338.232C122.857 338.232 119.785 338.04 117.033 338.04C116.393 338.04 116.073 338.104 116.073 338.488C116.073 338.68 116.329 338.872 116.777 338.872C117.289 338.872 117.929 338.936 118.505 339C120.361 339.192 120.809 340.408 120.937 342.072C121.065 343.8 121.065 345.464 121.065 353.912V363.384C121.065 368.632 121.129 372.92 120.745 375.224C120.553 376.632 120.297 377.848 119.145 378.104C118.633 378.232 118.121 378.296 117.609 378.296C117.033 378.296 116.905 378.552 116.905 378.744C116.905 379.064 117.289 379.192 117.929 379.192C119.593 379.192 123.497 379 123.689 379C124.009 379 127.785 379.192 131.049 379.192C131.625 379.192 131.881 379 131.881 378.744C131.881 378.488 131.561 378.296 131.113 378.296C130.601 378.296 129.641 378.232 128.809 378.104C127.145 377.912 126.825 376.632 126.633 375.224C126.313 372.92 126.313 368.76 126.313 363.576V357.88C126.313 357.56 126.441 357.496 126.633 357.496H149.865C150.057 357.496 150.249 357.624 150.249 357.88V363.576C150.249 368.76 150.249 372.792 149.929 375.096C149.737 376.568 149.417 377.976 148.329 378.168C147.817 378.296 147.369 378.296 146.857 378.296C146.345 378.296 146.153 378.488 146.153 378.68C146.153 379.064 146.473 379.192 147.113 379.192C148.841 379.192 152.553 379 152.809 379C153.129 379 156.841 379.192 160.041 379.192C160.681 379.192 161.001 379.064 161.001 378.744C161.001 378.488 160.681 378.296 160.169 378.296C159.593 378.296 158.761 378.232 157.929 378.104C156.265 377.912 155.945 376.632 155.753 375.096C155.497 372.792 155.497 368.632 155.497 363.384V353.784C155.497 345.336 155.497 343.864 155.561 342.136C155.689 340.344 155.945 339.32 157.673 339.064C158.057 339 158.569 338.936 158.953 338.936C159.465 338.936 159.657 338.68 159.657 338.488C159.657 338.104 159.273 338.04 158.633 338.04C156.713 338.04 153.129 338.232 152.873 338.232C152.617 338.232 148.841 338.04 146.153 338.04C145.577 338.04 145.257 338.104 145.257 338.488C145.257 338.744 145.577 338.936 146.025 338.936C146.537 338.936 147.177 339 147.625 339.064C149.737 339.448 149.993 340.344 150.121 342.072C150.249 343.8 150.249 345.272 150.249 353.72V354.872C150.249 355.192 150.057 355.192 149.865 355.192H126.697ZM185.558 369.912C185.558 370.424 185.558 372.728 185.366 375.032C185.238 376.568 184.79 377.912 183.702 378.104C183.19 378.232 182.614 378.296 182.102 378.296C181.654 378.296 181.462 378.488 181.462 378.68C181.462 379 181.718 379.192 182.358 379.192C184.15 379.192 187.99 379 188.118 379C188.31 379 192.278 379.192 195.478 379.192C196.054 379.192 196.246 379 196.246 378.68C196.246 378.488 196.054 378.296 195.542 378.296C195.094 378.296 194.006 378.232 193.174 378.04C191.19 377.656 191.062 376.568 190.934 375.032C190.806 372.728 190.806 370.36 190.806 369.912V365.24C190.806 363.576 190.678 362.168 191.446 360.184C192.406 357.944 198.614 347.512 202.326 342.392C203.35 340.984 203.734 340.408 204.694 339.768C205.59 339.128 206.55 339 207.894 338.936C208.342 338.936 208.662 338.744 208.662 338.424C208.662 338.232 208.47 338.04 207.894 338.04C206.806 338.04 203.094 338.232 202.262 338.232C201.238 338.232 199.894 338.04 198.358 338.04C197.718 338.04 197.59 338.232 197.59 338.424C197.59 338.68 197.782 338.872 198.294 338.936C198.998 339.064 199.766 339.064 199.766 339.896C199.766 340.6 199.51 341.176 198.294 343.288C197.398 344.888 190.23 356.6 189.206 358.84C188.246 357.24 179.798 343.672 178.966 342.072C178.518 341.24 178.134 340.6 178.134 339.96C178.134 339.448 178.262 339.128 179.158 338.936C179.67 338.808 179.862 338.68 179.862 338.424C179.862 338.232 179.67 338.04 179.03 338.04C176.662 338.04 174.55 338.232 174.166 338.232C174.038 338.232 169.174 338.04 168.15 338.04C167.638 338.04 167.382 338.232 167.382 338.424C167.382 338.744 167.702 338.936 168.086 338.936C169.366 339 170.198 339.256 171.094 339.896C171.99 340.6 172.63 341.368 174.358 343.8C176.342 346.552 183.766 358.648 184.15 359.352C185.11 361.016 185.558 362.168 185.558 365.24V369.912ZM251.177 355.192C250.985 355.192 250.793 355.192 250.793 354.872V353.72C250.793 345.272 250.793 343.864 250.857 342.136C250.985 340.344 251.369 339.256 252.969 339C253.673 338.872 253.865 338.872 254.249 338.872C254.633 338.872 254.889 338.744 254.889 338.488C254.889 338.168 254.569 338.04 253.929 338.04C252.137 338.04 248.425 338.232 248.169 338.232C247.337 338.232 244.265 338.04 241.513 338.04C240.873 338.04 240.553 338.104 240.553 338.488C240.553 338.68 240.809 338.872 241.257 338.872C241.769 338.872 242.409 338.936 242.985 339C244.841 339.192 245.289 340.408 245.417 342.072C245.545 343.8 245.545 345.464 245.545 353.912V363.384C245.545 368.632 245.609 372.92 245.225 375.224C245.033 376.632 244.777 377.848 243.625 378.104C243.113 378.232 242.601 378.296 242.089 378.296C241.513 378.296 241.385 378.552 241.385 378.744C241.385 379.064 241.769 379.192 242.409 379.192C244.073 379.192 247.977 379 248.169 379C248.489 379 252.265 379.192 255.529 379.192C256.105 379.192 256.361 379 256.361 378.744C256.361 378.488 256.041 378.296 255.593 378.296C255.081 378.296 254.121 378.232 253.289 378.104C251.625 377.912 251.305 376.632 251.113 375.224C250.793 372.92 250.793 368.76 250.793 363.576V357.88C250.793 357.56 250.921 357.496 251.113 357.496H274.345C274.537 357.496 274.729 357.624 274.729 357.88V363.576C274.729 368.76 274.729 372.792 274.409 375.096C274.217 376.568 273.897 377.976 272.809 378.168C272.297 378.296 271.849 378.296 271.337 378.296C270.825 378.296 270.633 378.488 270.633 378.68C270.633 379.064 270.953 379.192 271.593 379.192C273.321 379.192 277.033 379 277.289 379C277.609 379 281.321 379.192 284.521 379.192C285.161 379.192 285.481 379.064 285.481 378.744C285.481 378.488 285.161 378.296 284.649 378.296C284.073 378.296 283.241 378.232 282.409 378.104C280.745 377.912 280.425 376.632 280.233 375.096C279.977 372.792 279.977 368.632 279.977 363.384V353.784C279.977 345.336 279.977 343.864 280.041 342.136C280.169 340.344 280.425 339.32 282.153 339.064C282.537 339 283.049 338.936 283.433 338.936C283.945 338.936 284.137 338.68 284.137 338.488C284.137 338.104 283.753 338.04 283.113 338.04C281.193 338.04 277.609 338.232 277.353 338.232C277.097 338.232 273.321 338.04 270.633 338.04C270.057 338.04 269.737 338.104 269.737 338.488C269.737 338.744 270.057 338.936 270.505 338.936C271.017 338.936 271.657 339 272.105 339.064C274.217 339.448 274.473 340.344 274.601 342.072C274.729 343.8 274.729 345.272 274.729 353.72V354.872C274.729 355.192 274.537 355.192 274.345 355.192H251.177ZM303.83 363.384C303.83 368.184 303.83 372.728 303.51 375.032C303.318 376.568 303.126 377.848 302.038 378.104C301.526 378.232 300.822 378.296 300.502 378.296C299.926 378.296 299.67 378.488 299.67 378.744C299.67 379.064 300.118 379.192 300.694 379.192C302.486 379.192 306.262 379 306.454 379C306.774 379 310.486 379.192 313.75 379.192C314.39 379.192 314.646 379 314.646 378.744C314.646 378.488 314.518 378.36 313.942 378.296C313.686 378.296 312.342 378.232 311.51 378.04C309.846 377.656 309.59 376.952 309.334 375.096C309.014 372.792 309.078 368.312 309.078 363.384V353.784C309.078 345.336 309.014 343.864 309.142 342.136C309.27 340.28 309.462 339.32 311.318 339.064C311.766 339 312.086 339 312.47 338.936C312.982 338.872 313.174 338.744 313.174 338.488C313.174 338.168 312.854 338.04 312.214 338.04C310.422 338.04 306.71 338.232 306.454 338.232C306.262 338.232 302.614 338.04 300.63 338.04C299.926 338.04 299.67 338.168 299.67 338.488C299.67 338.744 299.926 338.872 300.374 338.936C300.758 339 301.206 339 301.846 339.128C303.19 339.384 303.574 340.344 303.702 342.072C303.83 343.8 303.83 345.336 303.83 353.784V363.384ZM333.053 363.384C333.053 368.504 332.989 372.28 332.797 374.648C332.669 376.952 332.477 377.976 331.005 378.168C330.621 378.232 330.301 378.232 329.661 378.296C329.149 378.36 329.021 378.552 329.021 378.744C329.021 379.064 329.341 379.192 329.917 379.192C331.261 379.192 333.885 379.064 335.101 379H335.549C335.805 379 339.325 379.192 342.653 379.192C343.293 379.192 343.485 379 343.485 378.744C343.485 378.488 343.229 378.36 342.717 378.296C342.141 378.232 341.565 378.168 340.733 378.04C338.941 377.784 338.493 377.336 338.429 374.136C338.365 371.576 338.301 367.736 338.301 363.448V358.968C338.301 358.52 338.365 358.392 338.749 358.392C339.773 358.392 345.533 358.392 346.813 358.584C349.949 358.968 350.077 361.144 350.141 362.04C350.205 362.616 350.205 363 350.589 363C350.909 363 351.037 362.68 351.037 362.04C351.037 361.144 351.101 360.056 351.293 358.328C351.485 356.408 351.741 355.32 351.741 355C351.741 354.68 351.677 354.424 351.485 354.424C351.229 354.424 351.101 354.616 350.845 354.936C350.013 355.96 349.181 356.088 346.557 356.152C344.445 356.216 341.373 356.216 338.749 356.216C338.365 356.216 338.301 355.96 338.301 355.64V341.176C338.301 340.664 338.429 340.536 338.877 340.536C341.693 340.536 344.189 340.6 346.941 340.664C348.541 340.728 349.693 340.792 350.525 341.56C351.293 342.328 351.549 344.056 351.549 344.76C351.613 345.208 351.741 345.528 352.061 345.528C352.317 345.528 352.509 345.272 352.509 344.568C352.637 342.904 352.573 341.752 352.829 340.088C352.893 339.448 353.085 338.552 353.213 338.104C353.341 337.72 353.213 337.528 353.021 337.528C352.893 337.528 352.701 337.592 352.381 337.72C351.741 337.976 350.781 338.104 349.501 338.168C348.157 338.232 336.509 338.232 335.549 338.232C333.437 338.232 331.325 338.04 329.021 338.04C328.381 338.04 328.061 338.168 328.061 338.488C328.061 338.744 328.381 338.936 328.893 339C329.469 339.064 329.917 339.064 330.493 339.128C332.477 339.32 332.797 340.344 332.925 342.136C333.053 343.864 333.053 345.4 333.053 353.784V363.384ZM370.337 363.384C370.337 368.184 370.337 372.728 370.017 375.032C369.825 376.568 369.633 377.848 368.545 378.104C368.033 378.232 367.329 378.296 367.009 378.296C366.433 378.296 366.177 378.488 366.177 378.744C366.177 379.064 366.625 379.192 367.201 379.192C368.993 379.192 372.769 379 372.961 379C373.281 379 376.993 379.192 380.257 379.192C380.897 379.192 381.153 379 381.153 378.744C381.153 378.488 381.025 378.36 380.449 378.296C380.193 378.296 378.849 378.232 378.017 378.04C376.353 377.656 376.097 376.952 375.841 375.096C375.521 372.792 375.585 368.312 375.585 363.384V353.784C375.585 345.336 375.521 343.864 375.649 342.136C375.777 340.28 375.969 339.32 377.825 339.064C378.273 339 378.593 339 378.977 338.936C379.489 338.872 379.681 338.744 379.681 338.488C379.681 338.168 379.361 338.04 378.721 338.04C376.929 338.04 373.217 338.232 372.961 338.232C372.769 338.232 369.121 338.04 367.137 338.04C366.433 338.04 366.177 338.168 366.177 338.488C366.177 338.744 366.433 338.872 366.881 338.936C367.265 339 367.713 339 368.353 339.128C369.697 339.384 370.081 340.344 370.209 342.072C370.337 343.8 370.337 345.336 370.337 353.784V363.384ZM399.56 363.256C399.56 368.44 399.624 372.792 399.24 375.16C399.048 376.568 398.664 377.912 397.576 378.104C397.064 378.232 396.616 378.296 396.104 378.296C395.592 378.296 395.4 378.552 395.4 378.744C395.4 379.064 395.72 379.192 396.296 379.192C397.256 379.192 398.792 379.064 400.008 379.064C401.224 379 402.056 379 402.184 379C402.376 379 404.36 379.192 406.792 379.32C409.224 379.512 412.36 379.64 414.792 379.64C424.52 379.64 429.384 375.864 431.88 373.368C435.016 370.168 437.96 364.856 437.96 358.072C437.96 351.608 435.336 347.128 432.52 344.312C425.736 337.464 415.24 338.04 409.608 338.04C406.024 338.04 402.696 338.232 402.248 338.232C402.056 338.232 398.024 338.04 395.4 338.04C394.824 338.04 394.44 338.168 394.44 338.552C394.44 338.744 394.76 338.936 395.08 338.936C395.592 338.936 396.552 339 396.936 339.064C398.792 339.448 399.304 340.344 399.432 342.072C399.56 343.736 399.56 345.336 399.56 353.784V363.256ZM404.808 352.76C404.808 348.92 404.808 343.48 404.872 341.624C404.872 341.048 405.064 340.792 405.576 340.536C405.96 340.28 407.944 340.088 408.84 340.088C415.176 340.088 421.448 340.728 426.888 346.168C429.064 348.28 432.392 352.696 432.392 359.928C432.392 365.048 431.048 369.848 428.232 372.664C424.904 375.992 420.168 377.656 414.92 377.656C408.264 377.656 406.216 376.312 405.512 375.224C405.064 374.648 404.936 372.92 404.872 370.936C404.872 369.976 404.808 364.984 404.808 359.224V352.76ZM462.178 369.912C462.178 370.424 462.178 372.728 461.986 375.032C461.858 376.568 461.41 377.912 460.322 378.104C459.81 378.232 459.234 378.296 458.722 378.296C458.274 378.296 458.082 378.488 458.082 378.68C458.082 379 458.338 379.192 458.978 379.192C460.77 379.192 464.61 379 464.738 379C464.93 379 468.898 379.192 472.098 379.192C472.674 379.192 472.866 379 472.866 378.68C472.866 378.488 472.674 378.296 472.162 378.296C471.714 378.296 470.626 378.232 469.794 378.04C467.81 377.656 467.682 376.568 467.554 375.032C467.426 372.728 467.426 370.36 467.426 369.912V365.24C467.426 363.576 467.298 362.168 468.066 360.184C469.026 357.944 475.234 347.512 478.946 342.392C479.97 340.984 480.354 340.408 481.314 339.768C482.21 339.128 483.17 339 484.514 338.936C484.962 338.936 485.282 338.744 485.282 338.424C485.282 338.232 485.09 338.04 484.514 338.04C483.426 338.04 479.714 338.232 478.882 338.232C477.858 338.232 476.514 338.04 474.978 338.04C474.338 338.04 474.21 338.232 474.21 338.424C474.21 338.68 474.402 338.872 474.914 338.936C475.618 339.064 476.386 339.064 476.386 339.896C476.386 340.6 476.13 341.176 474.914 343.288C474.018 344.888 466.85 356.6 465.826 358.84C464.866 357.24 456.418 343.672 455.586 342.072C455.138 341.24 454.754 340.6 454.754 339.96C454.754 339.448 454.882 339.128 455.778 338.936C456.29 338.808 456.482 338.68 456.482 338.424C456.482 338.232 456.29 338.04 455.65 338.04C453.282 338.04 451.17 338.232 450.786 338.232C450.658 338.232 445.794 338.04 444.77 338.04C444.258 338.04 444.002 338.232 444.002 338.424C444.002 338.744 444.322 338.936 444.706 338.936C445.986 339 446.818 339.256 447.714 339.896C448.61 340.6 449.25 341.368 450.978 343.8C452.962 346.552 460.386 358.648 460.77 359.352C461.73 361.016 462.178 362.168 462.178 365.24V369.912Z" fill="white"/>
</g>
<defs>
<clipPath id="clip0">
<rect width="512" height="512" fill="white"/>
</clipPath>
</defs>
</svg>
